<svg height="100%" width="100%" id="svg" viewBox="0 0 1440 698" xmlns="http://www.w3.org/2000/svg" class="transition duration-300 ease-in-out delay-150"><path d="M 0,700 C 0,700 0,233 0,233 C 24.54895106948821,186.48996467959512 49.09790213897642,139.97992935919024 76,160 C 102.90209786102358,180.02007064080976 132.15734251358256,266.57024724283417 154,284 C 175.84265748641744,301.42975275716583 190.2727278066933,249.73908166947317 216,235 C 241.7272721933067,220.26091833052683 278.75174625964434,242.4734260792733 300,225 C 321.24825374035566,207.5265739207267 326.7202871547293,150.36721401343357 351,149 C 375.2797128452707,147.63278598656643 418.3671051214385,202.0577178669925 442,215 C 465.6328948785615,227.9422821330075 469.81129235951653,199.40191451859644 494,187 C 518.1887076404835,174.59808548140356 562.3877254404953,178.33462405862178 588,209 C 613.6122745595047,239.66537594137822 620.6378058785026,297.2595892469164 639,304 C 657.3621941214974,310.7404107530836 687.0610510454942,266.62701895371276 716,236 C 744.9389489545058,205.37298104628726 773.1179899395206,188.23233493823264 799,201 C 824.8820100604794,213.76766506176736 848.4669891964236,256.4436412933568 868,261 C 887.5330108035764,265.5563587066432 903.0140532747852,231.99309988834008 928,218 C 952.9859467252148,204.00690011165992 987.4767977044357,209.5839591532829 1014,199 C 1040.5232022955643,188.4160408467171 1059.0787559074718,161.6710634985282 1081,158 C 1102.9212440925282,154.3289365014718 1128.2081786656775,173.73178685260433 1156,199 C 1183.7918213343225,224.26821314739567 1214.0885294298184,255.40178909105452 1236,256 C 1257.9114705701816,256.5982109089455 1271.437703615049,226.66105678317763 1293,225 C 1314.562296384951,223.33894321682237 1344.160656109986,249.95398377623496 1370,256 C 1395.839343890014,262.04601622376504 1417.919671945007,247.52300811188252 1440,233 C 1440,233 1440,700 1440,700 Z" stroke="none" stroke-width="0" fill="rgba(0, 0, 0, 0.05)" class="transition-all duration-300 ease-in-out delay-150"></path><path d="M 0,700 C 0,700 0,466 0,466 C 19.568377633641994,458.1007223444003 39.13675526728399,450.2014446888006 66,443 C 92.86324473271601,435.7985553111994 127.02135656450608,429.2949435891977 150,448 C 172.97864343549392,466.7050564108023 184.77781847469174,510.6187809544083 207,518 C 229.22218152530826,525.3812190455917 261.86736953672687,496.2299325931692 292,478 C 322.13263046327313,459.7700674068308 349.7527033784008,452.4614886729147 372,466 C 394.2472966215992,479.5385113270853 411.12181694966995,513.9241127151721 434,513 C 456.87818305033005,512.0758872848279 485.76002882291925,475.84206046639684 512,479 C 538.2399711770807,482.15793953360316 561.8380677586529,524.7076454192404 587,541 C 612.1619322413471,557.2923545807596 638.8877001424695,547.3273578566415 658,532 C 677.1122998575305,516.6726421433585 688.611131671469,495.9829231541939 712,460 C 735.388868328531,424.0170768458061 770.6677731716545,372.7409495265831 796,379 C 821.3322268283455,385.2590504734169 836.7177756419129,449.05327873947374 858,491 C 879.2822243580871,532.9467212605263 906.4611242606939,553.0459355155218 928,540 C 949.5388757393061,526.9540644844782 965.4377273153119,480.7629791984391 994,464 C 1022.5622726846881,447.2370208015609 1063.7879664780585,459.90214769072173 1093,468 C 1122.2120335219415,476.09785230927827 1139.4104067724538,479.6284300386739 1161,479 C 1182.5895932275462,478.3715699613261 1208.5704064321258,473.5841321545823 1229,450 C 1249.4295935678742,426.4158678454177 1264.3079674990431,384.03504134299703 1286,396 C 1307.6920325009569,407.96495865700297 1336.197723571702,474.2757024734294 1363,495 C 1389.802276428298,515.7242975265706 1414.901138214149,490.8621487632853 1440,466 C 1440,466 1440,700 1440,700 Z" stroke="none" stroke-width="0" fill="white" class="transition-all duration-300 ease-in-out delay-150"></path></svg>