<svg height="100%" width="100%" id="svg" viewBox="0 0 1441 700" xmlns="http://www.w3.org/2000/svg" class="transition duration-300 ease-in-out delay-150"><defs><linearGradient id="gradient"><stop offset="5%" stop-color="#002bdc66"></stop><stop offset="95%" stop-color="#32ded466"></stop></linearGradient></defs><path d="M 0,700 C 0,700 0,175 0,175 C 160.32142857142856,145.14285714285714 320.6428571428571,115.28571428571429 427,109 C 533.3571428571429,102.71428571428571 585.75,119.99999999999997 684,145 C 782.25,170.00000000000003 926.3571428571429,202.71428571428572 1060,209 C 1193.642857142857,215.28571428571428 1316.8214285714284,195.14285714285714 1440,175 C 1440,175 1440,700 1440,700 Z" stroke="none" stroke-width="0" fill="grey" class="transition-all duration-300 ease-in-out delay-150"></path><defs><linearGradient id="gradient"><stop offset="5%" stop-color="#002bdc88"></stop><stop offset="95%" stop-color="#32ded488"></stop></linearGradient></defs><path d="M 0,700 C 0,700 0,350 0,350 C 111.32142857142858,327.82142857142856 222.64285714285717,305.64285714285717 364,294 C 505.35714285714283,282.35714285714283 676.75,281.25 784,296 C 891.25,310.75 934.3571428571429,341.35714285714283 1033,353 C 1131.642857142857,364.64285714285717 1285.8214285714284,357.32142857142856 1440,350 C 1440,350 1440,700 1440,700 Z" stroke="none" stroke-width="0" fill="grey" class="transition-all duration-300 ease-in-out delay-150"></path><defs><linearGradient id="gradient"><stop offset="5%" stop-color="#002bdcff"></stop><stop offset="95%" stop-color="#32ded4ff"></stop></linearGradient></defs><path d="M 0,700 C 0,700 0,525 0,525 C 92.64285714285714,530.1071428571429 185.28571428571428,535.2142857142858 297,514 C 408.7142857142857,492.7857142857143 539.5000000000001,445.25 691,462 C 842.4999999999999,478.75 1014.7142857142856,559.7857142857142 1143,581 C 1271.2857142857144,602.2142857142858 1355.6428571428573,563.6071428571429 1440,525 C 1440,525 1440,700 1440,700 Z" stroke="none" stroke-width="0" fill="#383838" class="transition-all duration-300 ease-in-out delay-150"></path></svg>