<svg height="100%" width="100%" id="svg" viewBox="0 0 1450 700" xmlns="http://www.w3.org/2000/svg" class="transition duration-300 ease-in-out delay-150"><defs><linearGradient id="gradient"><stop offset="5%" stop-color="#002bdc88"></stop><stop offset="95%" stop-color="#32ded488"></stop></linearGradient></defs><path d="M 0,700 C 0,700 0,233 0,233 C 202.2666666666667,191 404.5333333333334,149 555,163 C 705.4666666666666,177 804.1333333333334,247 943,268 C 1081.8666666666666,289 1260.9333333333334,261 1440,233 C 1440,233 1440,700 1440,700 Z" stroke="none" stroke-width="0" fill="rgba(0,0,0,0.1)" class="transition-all duration-300 ease-in-out delay-150"></path><defs><linearGradient id="gradient"><stop offset="5%" stop-color="#002bdcff"></stop><stop offset="95%" stop-color="#32ded4ff"></stop></linearGradient></defs><path d="M 0,700 C 0,700 0,466 0,466 C 137.86666666666667,429.06666666666666 275.73333333333335,392.1333333333333 444,413 C 612.2666666666667,433.8666666666667 810.9333333333334,512.5333333333333 982,531 C 1153.0666666666666,549.4666666666667 1296.5333333333333,507.73333333333335 1440,466 C 1440,466 1440,700 1440,700 Z" stroke="none" stroke-width="0" fill="#ebd6d3" class="transition-all duration-300 ease-in-out delay-150"></path></svg>